<?xml version="1.0" standalone="no"?>
<!DOCTYPE svg PUBLIC "-//W3C//DTD SVG 20010904//EN"
 "http://www.w3.org/TR/2001/REC-SVG-20010904/DTD/svg10.dtd">
<svg version="1.0" xmlns="http://www.w3.org/2000/svg"
 width="255.000000pt" height="255.000000pt" viewBox="0 0 255.000000 255.000000"
 preserveAspectRatio="xMidYMid meet">
<metadata>
Created by potrace 1.16, written by Peter Selinger 2001-2019
</metadata>
<g transform="translate(0.000000,255.000000) scale(0.100000,-0.100000)"
fill="#000000" stroke="none">
<path d="M725 2540 c-170 -8 -224 -19 -327 -70 -140 -70 -253 -181 -322 -321
-80 -159 -80 -154 -73 -883 5 -608 6 -645 26 -721 55 -208 189 -374 376 -465
151 -74 144 -73 835 -71 338 1 647 7 685 12 286 39 514 238 596 521 21 71 21
88 19 698 0 344 -5 654 -10 690 -42 297 -247 526 -536 600 -72 19 -109 20
-593 18 -284 -1 -588 -5 -676 -8z m1095 -1076 l0 -376 61 -66 c79 -87 93 -113
86 -171 -4 -36 -13 -52 -41 -78 l-36 -33 -631 0 -631 0 -33 33 c-69 69 -60
128 36 237 l69 79 0 375 0 376 560 0 560 0 0 -376z"/>
<path d="M800 1425 l0 -305 460 0 460 0 0 305 0 305 -460 0 -460 0 0 -305z
m773 251 c67 -20 70 -30 26 -98 -25 -39 -37 -48 -59 -48 -18 0 -35 9 -47 25
l-18 24 -265 -74 c-148 -42 -275 -73 -287 -70 -28 6 -31 41 -5 49 9 3 116 32
237 66 306 85 287 78 274 102 -6 11 -8 27 -5 35 8 19 60 15 149 -11z m58 -196
c18 -10 19 -23 19 -165 l0 -155 -100 0 -100 0 0 155 c0 152 1 156 23 165 31
12 134 12 158 0z m-300 -60 c17 -10 19 -22 19 -135 l0 -125 -100 0 -100 0 0
125 c0 108 2 125 18 134 22 14 138 14 163 1z m-300 -60 c17 -9 19 -22 19 -105
l0 -95 -100 0 -100 0 0 95 c0 79 3 96 18 104 22 14 138 14 163 1z"/>
<path d="M712 947 c-66 -66 -76 -93 -39 -102 12 -3 285 -4 607 -3 l585 3 0 21
c0 12 -25 48 -57 82 l-57 62 -488 0 -489 0 -62 -63z"/>
</g>
</svg>
